# ProBuilder 5.2.4
# https://unity3d.com/unity/features/worldbuilding/probuilder
# 12/12/2025 09:53:46

mtllib ./white4.mtl
o white4

g white4
v 4.5 0.6349609 1.863867
v 4.870703 0.6349609 0
v 4.870703 -0.6455078 0
v 4.5 -0.6455078 1.863867
v 4.390234 -1.285938 1.818359
v 3.444141 -0.6455078 3.444141
v 4.751953 -1.285938 0
v 4.390234 -1.285938 -1.818359
v 4.5 -0.6455078 -1.863867
v 3.444141 -0.6455078 -3.444141
v 4.344922 -1.791797 0
v 3.360156 -1.285938 -3.360156
v 1.818359 -1.285938 -4.390234
v 1.863867 -0.6455078 -4.5
v 0 -0.6455078 -4.870703
v 3.072266 -1.791797 -2.940039
v 0 -1.791992 0
v 3.072266 -1.791797 2.940039
v 0 -1.791797 -4.157813
v 0 -1.285938 -4.751953
v -1.818359 -1.285938 -4.390234
v -1.863867 -0.6455078 -4.5
v -3.444141 -0.6455078 -3.444141
v -3.072266 -1.791797 -2.940039
v -3.360156 -1.285938 -3.360156
v -4.390234 -1.285938 -1.818359
v -4.5 -0.6455078 -1.863867
v -4.870703 -0.6455078 0
v -4.5 0.6349609 -1.863867
v -4.870703 0.6349609 0
v -4.5 0.6349609 1.863867
v -4.344922 -1.791797 0
v -4.751953 -1.285938 0
v -4.390234 -1.285938 1.818359
v -4.5 -0.6455078 1.863867
v -3.444141 -0.6455078 3.444141
v -3.444141 0.6349609 3.444141
v -1.863867 0.6349609 4.5
v -1.863867 -0.6455078 4.5
v -3.072266 -1.791797 2.940039
v -3.360156 -1.285938 3.360156
v -1.818359 -1.285938 4.390234
v 0 -0.6455078 4.870703
v 0 -1.791797 4.157813
v 0 -1.285938 4.751953
v 1.818359 -1.285938 4.390234
v 3.360156 -1.285938 3.360156
v 1.863867 -0.6455078 4.5
v 1.863867 0.6349609 4.5
v 0 0.6349609 4.870703
v 3.444141 0.6349609 3.444141
v 3.360156 1.275391 3.360156
v 4.390234 1.275391 1.818359
v 4.751953 1.275391 0
v 4.5 0.6349609 -1.863867
v 4.014258 1.7 1.591016
v 1.818359 1.275391 4.390234
v 0 1.275391 4.751953
v 1.662695 1.7 3.841406
v 3.072266 1.7 2.940039
v 2.520117 1.8 2.520117
v 3.444141 0.6349609 -3.444141
v 1.863867 0.6349609 -4.5
v 3.360156 1.275391 -3.360156
v 4.390234 1.275391 -1.818359
v 4.014258 1.7 -1.591016
v 4.344922 1.7 0
v 3.563867 1.8 0
v 0 1.8 0
v 2.520117 1.8 -2.520117
v 3.072266 1.7 -2.940039
v 1.662695 1.7 -3.841406
v 1.818359 1.275391 -4.390234
v 0 1.275391 -4.751953
v 0 1.8 -3.563867
v 0 1.8 3.563867
v 0 0.6349609 -4.870703
v -1.863867 0.6349609 -4.5
v 0 1.7 -4.157813
v -1.662695 1.7 -3.841406
v -2.520117 1.8 -2.520117
v 0 1.7 4.157813
v -1.662695 1.7 3.841406
v -2.520117 1.8 2.520117
v -1.818359 1.275391 -4.390234
v -3.360156 1.275391 -3.360156
v -3.444141 0.6349609 -3.444141
v -4.390234 1.275391 -1.818359
v -4.751953 1.275391 0
v -3.072266 1.7 -2.940039
v -4.014258 1.7 -1.591016
v -3.563867 1.8 0
v -4.344922 1.7 0
v -4.014258 1.7 1.591016
v -4.390234 1.275391 1.818359
v -3.360156 1.275391 3.360156
v -3.072266 1.7 2.940039
v -1.818359 1.275391 4.390234

vt 0.9179688 0.6757813
vt 0.953125 0.5
vt 0.90625 0.671875
vt 0.8203125 0.8242188
vt 0.9414063 0.5
vt 0.90625 0.3320313
vt 0.9179688 0.328125
vt 0.8203125 0.1796875
vt 0.9023438 0.5
vt 0.8125 0.1875
vt 0.6679688 0.09375
vt 0.671875 0.08203125
vt 0.5 0.046875
vt 0.7851563 0.2265625
vt 0.5 0.5
vt 0.7851563 0.7773438
vt 0.5 0.1132813
vt 0.5 0.05859375
vt 0.328125 0.09375
vt 0.3242188 0.08203125
vt 0.1757813 0.1796875
vt 0.2109375 0.2265625
vt 0.1835938 0.1875
vt 0.08984375 0.3320313
vt 0.078125 0.328125
vt 0.04296875 0.5
vt 0.078125 0.6757813
vt 0.09375 0.5
vt 0.0546875 0.5
vt 0.08984375 0.671875
vt 0.1757813 0.8242188
vt 0.3242188 0.921875
vt 0.2109375 0.7773438
vt 0.1835938 0.8164063
vt 0.328125 0.9101563
vt 0.5 0.9570313
vt 0.5 0.890625
vt 0.5 0.9453125
vt 0.6679688 0.9101563
vt 0.8125 0.8164063
vt 0.671875 0.921875
vt 0.8710938 0.6523438
vt 0.65625 0.8828125
vt 0.734375 0.7382813
vt 0.8710938 0.3515625
vt 0.8320313 0.5
vt 0.734375 0.265625
vt 0.6523438 0.1445313
vt 0.5 0.1679688
vt 0.5 0.8359375
vt 0.34375 0.1445313
vt 0.2421875 0.2578125
vt 0.5 0.9179688
vt 0.3398438 0.8710938
vt 0.2617188 0.7382813
vt 0.171875 0.1875
vt 0.1875 0.2109375
vt 0.125 0.3515625
vt 0.1640625 0.5
vt 0.1171875 0.5078125
vt 0.1445313 0.6523438
vt 0.2148438 0.7773438

vn 0.9200032 0.09160329 0.3810551
vn 0.9957985 0.09157076 -3.813065E-09
vn 0.9957963 -0.09159561 -3.813079E-09
vn 0.9200012 -0.09162728 0.381054
vn 0.8075246 -0.47122 0.3547616
vn 0.7041333 -0.09161028 0.7041333
vn 0.9084144 -0.4180708 0
vn 0.8075246 -0.47122 -0.3547616
vn 0.9200012 -0.09162728 -0.381054
vn 0.7041333 -0.09161028 -0.7041333
vn 0.4616188 -0.8870784 0
vn 0.627177 -0.4644031 -0.6252829
vn 0.3122412 -0.5148786 -0.7983767
vn 0.381054 -0.09162728 -0.9200012
vn 0 -0.09159561 -0.9957963
vn 0.2999877 -0.9217035 -0.2459068
vn 0 -1 0
vn 0.2999876 -0.9217035 0.2459068
vn -6.345808E-10 -0.921734 -0.3878225
vn 4.006695E-09 -0.5023193 -0.8646821
vn -0.3122412 -0.5148786 -0.7983767
vn -0.381054 -0.09162728 -0.9200012
vn -0.7041333 -0.09161028 -0.7041333
vn -0.2999877 -0.9217035 -0.2459068
vn -0.627177 -0.4644031 -0.6252829
vn -0.8075246 -0.47122 -0.3547616
vn -0.9200012 -0.09162728 -0.381054
vn -0.9957963 -0.09159561 3.813079E-09
vn -0.9200032 0.09160329 -0.3810551
vn -0.9957985 0.09157077 0
vn -0.9200032 0.09160329 0.3810551
vn -0.4616188 -0.8870784 0
vn -0.9084144 -0.4180708 3.901283E-09
vn -0.8075246 -0.47122 0.3547616
vn -0.9200012 -0.09162728 0.381054
vn -0.7041333 -0.09161028 0.7041333
vn -0.7041349 0.09158714 0.7041349
vn -0.3810551 0.09160329 0.9200032
vn -0.381054 -0.09162728 0.9200012
vn -0.2999876 -0.9217035 0.2459068
vn -0.627177 -0.4644031 0.6252829
vn -0.3122412 -0.5148786 0.7983767
vn 0 -0.09159561 0.9957963
vn 2.617566E-09 -0.921734 0.3878225
vn -4.006695E-09 -0.5023193 0.8646821
vn 0.3122412 -0.5148786 0.7983767
vn 0.627177 -0.4644031 0.6252829
vn 0.381054 -0.09162728 0.9200012
vn 0.3810551 0.09160329 0.9200032
vn -3.813065E-09 0.09157076 0.9957985
vn 0.7041349 0.09158714 0.7041349
vn 0.610727 0.5026783 0.6118228
vn 0.8149834 0.4718778 0.3363531
vn 0.8872922 0.4612076 0
vn 0.9200032 0.09160329 -0.3810551
vn 0.339002 0.929972 0.1422312
vn 0.325541 0.5292905 0.7835015
vn 0 0.5365977 0.8438382
vn 0.1492419 0.9228023 0.3551939
vn 0.284485 0.9121211 0.2951329
vn 0.06635865 0.9953331 0.07006034
vn 0.7041349 0.09158714 -0.7041349
vn 0.3810551 0.09160329 -0.9200032
vn 0.610727 0.5026783 -0.6118228
vn 0.8149834 0.4718778 -0.3363531
vn 0.3976531 0.9030172 -0.1625791
vn 0.4484506 0.8938076 0
vn 0.07235132 0.9973792 -6.219846E-10
vn 0 1 0
vn 0.05705838 0.9957208 -0.07269443
vn 0.284485 0.9121211 -0.2951329
vn 0.1492419 0.9228023 -0.3551939
vn 0.325541 0.5292905 -0.7835015
vn 0 0.5365977 -0.8438382
vn -0.007439383 0.9966965 -0.08087426
vn -0.007439383 0.9966965 0.08087426
vn 0 0.09157076 -0.9957985
vn -0.3810551 0.09160329 -0.9200032
vn 0 0.9237623 -0.3829663
vn -0.14267 0.9219968 -0.3599544
vn -0.06737829 0.9960001 -0.05868463
vn 0 0.9237623 0.3829663
vn -0.14267 0.9219968 0.3599544
vn -0.05531727 0.9967593 0.05840304
vn -0.325541 0.5292905 -0.7835015
vn -0.610727 0.5026782 -0.6118228
vn -0.7041349 0.09158714 -0.7041349
vn -0.8149834 0.4718778 -0.3363531
vn -0.8872922 0.4612076 0
vn -0.284485 0.9121211 -0.2951329
vn -0.3961532 0.902341 -0.1698333
vn -0.06511869 0.9978572 0.006365808
vn -0.4484506 0.8938076 0
vn -0.3976531 0.9030172 0.1625791
vn -0.8149834 0.4718778 0.3363531
vn -0.610727 0.5026782 0.6118228
vn -0.284485 0.9121211 0.2951329
vn -0.325541 0.5292905 0.7835015

usemtl re_no_tex01_ia4_11
f 16/14/16 12/10/12 8/6/8
f 17/15/17 19/17/19 16/14/16
f 19/17/19 20/18/20 13/11/13
f 21/19/21 20/18/20 19/17/19
f 24/22/24 19/17/19 17/15/17
f 25/23/25 24/22/24 26/24/26
f 41/34/41 34/30/34 40/33/40
f 17/15/17 44/37/44 40/33/40
f 17/15/17 18/16/18 44/37/44
f 44/37/44 45/38/45 42/35/42
f 44/37/44 46/39/46 45/38/45
f 5/3/5 47/40/47 18/16/18
f 60/16/60 56/42/56 61/44/61
f 60/16/60 61/44/61 59/43/59
f 67/9/67 68/46/68 56/42/56
f 61/44/61 56/42/56 68/46/68
f 66/45/66 68/46/68 67/9/67
f 71/14/71 72/48/72 70/47/70
f 80/51/80 75/49/75 79/17/79
f 82/53/82 76/50/76 83/54/83
f 90/57/90 91/58/91 81/52/81
f 94/61/94 92/59/92 93/60/93
f 3/2/3 2/2/2 1/1/1
f 1/1/1 4/1/4 3/2/3
f 3/2/3 4/1/4 5/3/5
f 5/3/5 7/5/7 3/2/3
f 5/3/5 4/1/4 6/4/6
f 6/4/6 47/40/47 5/3/5
f 9/7/9 3/2/3 7/5/7
f 7/5/7 8/6/8 9/7/9
f 10/8/10 9/7/9 8/6/8
f 8/6/8 12/10/12 10/8/10
f 11/9/11 7/5/7 5/3/5
f 5/3/5 18/16/18 11/9/11
f 16/14/16 8/6/8 7/5/7
f 7/5/7 11/9/11 16/14/16
f 10/8/10 12/10/12 13/11/13
f 13/11/13 14/12/14 10/8/10
f 15/13/15 14/12/14 13/11/13
f 13/11/13 20/18/20 15/13/15
f 19/17/19 13/11/13 12/10/12
f 12/10/12 16/14/16 19/17/19
f 17/15/17 16/14/16 11/9/11
f 11/9/11 18/16/18 17/15/17
f 22/20/22 15/13/15 20/18/20
f 20/18/20 21/19/21 22/20/22
f 23/21/23 22/20/22 21/19/21
f 21/19/21 25/23/25 23/21/23
f 25/23/25 21/19/21 19/17/19
f 19/17/19 24/22/24 25/23/25
f 23/21/23 25/23/25 26/24/26
f 26/24/26 27/25/27 23/21/23
f 28/26/28 27/25/27 26/24/26
f 26/24/26 33/29/33 28/26/28
f 29/25/29 27/25/27 28/26/28
f 28/26/28 30/26/30 29/25/29
f 35/27/35 31/27/31 30/26/30
f 30/26/30 28/26/28 35/27/35
f 26/24/26 24/22/24 32/28/32
f 32/28/32 33/29/33 26/24/26
f 32/28/32 24/22/24 17/15/17
f 17/15/17 40/33/40 32/28/32
f 28/26/28 33/29/33 34/30/34
f 34/30/34 35/27/35 28/26/28
f 34/30/34 33/29/33 32/28/32
f 32/28/32 40/33/40 34/30/34
f 37/31/37 31/27/31 35/27/35
f 35/27/35 36/31/36 37/31/37
f 41/34/41 36/31/36 35/27/35
f 35/27/35 34/30/34 41/34/41
f 39/32/39 38/32/38 37/31/37
f 37/31/37 36/31/36 39/32/39
f 42/35/42 39/32/39 36/31/36
f 36/31/36 41/34/41 42/35/42
f 44/37/44 42/35/42 41/34/41
f 41/34/41 40/33/40 44/37/44
f 45/38/45 43/36/43 39/32/39
f 39/32/39 42/35/42 45/38/45
f 47/40/47 46/39/46 44/37/44
f 44/37/44 18/16/18 47/40/47
f 48/41/48 43/36/43 45/38/45
f 45/38/45 46/39/46 48/41/48
f 48/41/48 46/39/46 47/40/47
f 47/40/47 6/4/6 48/41/48
f 43/36/43 48/41/48 49/41/49
f 49/41/49 50/36/50 43/36/43
f 51/4/51 49/41/49 48/41/48
f 48/41/48 6/4/6 51/4/51
f 6/4/6 4/1/4 1/1/1
f 1/1/1 51/4/51 6/4/6
f 52/40/52 51/4/51 1/1/1
f 1/1/1 53/3/53 52/40/52
f 57/39/57 49/41/49 51/4/51
f 51/4/51 52/40/52 57/39/57
f 2/2/2 54/5/54 53/3/53
f 53/3/53 1/1/1 2/2/2
f 54/5/54 2/2/2 55/7/55
f 55/7/55 65/6/65 54/5/54
f 9/7/9 55/7/55 2/2/2
f 2/2/2 3/2/3 9/7/9
f 62/8/62 55/7/55 9/7/9
f 9/7/9 10/8/10 62/8/62
f 52/40/52 53/3/53 56/42/56
f 56/42/56 60/16/60 52/40/52
f 67/9/67 56/42/56 53/3/53
f 53/3/53 54/5/54 67/9/67
f 49/41/49 57/39/57 58/38/58
f 58/38/58 50/36/50 49/41/49
f 60/16/60 59/43/59 57/39/57
f 57/39/57 52/40/52 60/16/60
f 82/53/82 58/38/58 57/39/57
f 57/39/57 59/43/59 82/53/82
f 38/32/38 50/36/50 58/38/58
f 58/38/58 98/35/98 38/32/38
f 43/36/43 50/36/50 38/32/38
f 38/32/38 39/32/39 43/36/43
f 63/12/63 62/8/62 10/8/10
f 10/8/10 14/12/14 63/12/63
f 55/7/55 62/8/62 64/10/64
f 64/10/64 65/6/65 55/7/55
f 73/11/73 64/10/64 62/8/62
f 62/8/62 63/12/63 73/11/73
f 63/12/63 14/12/14 15/13/15
f 15/13/15 77/13/77 63/12/63
f 67/9/67 54/5/54 65/6/65
f 65/6/65 66/45/66 67/9/67
f 71/14/71 66/45/66 65/6/65
f 65/6/65 64/10/64 71/14/71
f 61/44/61 68/46/68 69/15/69
f 69/15/69 76/50/76 61/44/61
f 71/14/71 70/47/70 68/46/68
f 68/46/68 66/45/66 71/14/71
f 69/15/69 68/46/68 70/47/70
f 70/47/70 75/49/75 69/15/69
f 73/11/73 72/48/72 71/14/71
f 71/14/71 64/10/64 73/11/73
f 74/18/74 73/11/73 63/12/63
f 63/12/63 77/13/77 74/18/74
f 79/17/79 72/48/72 73/11/73
f 73/11/73 74/18/74 79/17/79
f 75/49/75 70/47/70 72/48/72
f 72/48/72 79/17/79 75/49/75
f 59/43/59 61/44/61 76/50/76
f 76/50/76 82/53/82 59/43/59
f 74/18/74 77/13/77 78/20/78
f 78/20/78 85/19/85 74/18/74
f 78/20/78 77/13/77 15/13/15
f 15/13/15 22/20/22 78/20/78
f 87/21/87 78/20/78 22/20/22
f 22/20/22 23/21/23 87/21/87
f 80/51/80 79/17/79 74/18/74
f 74/18/74 85/19/85 80/51/80
f 69/15/69 75/49/75 81/52/81
f 81/52/81 92/59/92 69/15/69
f 90/57/90 81/52/81 75/49/75
f 75/49/75 80/51/80 90/57/90
f 58/38/58 82/53/82 83/54/83
f 83/54/83 98/35/98 58/38/58
f 84/55/84 76/50/76 69/15/69
f 69/15/69 92/59/92 84/55/84
f 97/62/97 83/54/83 76/50/76
f 76/50/76 84/55/84 97/62/97
f 86/23/86 85/19/85 78/20/78
f 78/20/78 87/21/87 86/23/86
f 90/57/90 80/51/80 85/19/85
f 85/19/85 86/56/86 90/57/90
f 86/23/86 87/21/87 29/25/29
f 29/25/29 88/24/88 86/23/86
f 29/25/29 87/21/87 23/21/23
f 23/21/23 27/25/27 29/25/29
f 30/26/30 89/29/89 88/24/88
f 88/24/88 29/25/29 30/26/30
f 89/29/89 30/26/30 31/27/31
f 31/27/31 95/30/95 89/29/89
f 86/56/86 88/24/88 91/58/91
f 91/58/91 90/57/90 86/56/86
f 93/60/93 91/58/91 88/24/88
f 88/24/88 89/29/89 93/60/93
f 92/59/92 81/52/81 91/58/91
f 91/58/91 93/60/93 92/59/92
f 97/62/97 84/55/84 92/59/92
f 92/59/92 94/61/94 97/62/97
f 94/61/94 93/60/93 89/29/89
f 89/29/89 95/30/95 94/61/94
f 96/34/96 95/30/95 31/27/31
f 31/27/31 37/31/37 96/34/96
f 97/62/97 94/61/94 95/30/95
f 95/30/95 96/34/96 97/62/97
f 98/35/98 96/34/96 37/31/37
f 37/31/37 38/32/38 98/35/98
f 98/35/98 83/54/83 97/62/97
f 97/62/97 96/34/96 98/35/98

